<svg id="Layer_1" data-name="Layer 1" xmlns="http://www.w3.org/2000/svg" viewBox="0 0 1042 8"><defs><style>.cls-1{fill:none;stroke:#ff7f00;stroke-miterlimit:10;stroke-width:2px;}</style></defs><title>zig</title><path class="cls-1" d="M120.5,47.5c5.16,0,5.16,6,10.32,6s5.15-6,10.31-6,5.16,6,10.32,6,5.15-6,10.31-6,5.16,6,10.32,6,5.15-6,10.31-6,5.16,6,10.32,6,5.16-6,10.31-6,5.16,6,10.32,6,5.16-6,10.31-6,5.16,6,10.32,6,5.16-6,10.31-6,5.16,6,10.32,6,5.16-6,10.32-6,5.15,6,10.31,6,5.16-6,10.32-6,5.15,6,10.31,6,5.16-6,10.32-6,5.16,6,10.31,6,5.16-6,10.32-6,5.16,6,10.31,6,5.16-6,10.32-6,5.16,6,10.32,6,5.16-6,10.31-6,5.16,6,10.32,6,5.16-6,10.31-6,5.16,6,10.32,6,5.16-6,10.32-6,5.15,6,10.31,6,5.15-6,10.31-6,5.16,6,10.32,6,5.16-6,10.31-6,5.16,6,10.32,6,5.15-6,10.31-6,5.15,6,10.31,6,5.15-6,10.31-6,5.16,6,10.31,6,5.16-6,10.32-6,5.16,6,10.32,6,5.15-6,10.31-6,5.15,6,10.31,6,5.16-6,10.31-6,5.16,6,10.32,6,5.16-6,10.31-6,5.16,6,10.32,6,5.16-6,10.31-6,5.16,6,10.32,6,5.15-6,10.31-6,5.16,6,10.32,6,5.16-6,10.31-6,5.16,6,10.32,6,5.16-6,10.31-6,5.16,6,10.32,6,5.16-6,10.32-6,5.15,6,10.31,6,5.16-6,10.32-6,5.15,6,10.31,6,5.16-6,10.32-6,5.16,6,10.32,6,5.16-6,10.31-6,5.16,6,10.32,6,5.16-6,10.32-6,5.16,6,10.31,6,5.16-6,10.32-6,5.16,6,10.32,6,5.16-6,10.32-6,5.15,6,10.31,6,5.16-6,10.32-6,5.16,6,10.32,6,5.16-6,10.32-6,5.16,6,10.31,6,5.16-6,10.32-6,5.16,6,10.32,6,5.16-6,10.32-6,5.16,6,10.32,6,5.16-6,10.32-6,5.16,6,10.32,6,5.16-6,10.32-6,5.16,6,10.32,6,5.16-6,10.32-6,5.15,6,10.31,6,5.16-6,10.32-6,5.16,6,10.32,6,5.15-6,10.31-6,5.16,6,10.32,6,5.16-6,10.32-6,5.16,6,10.32,6,5.16-6,10.32-6,5.16,6,10.32,6,5.16-6,10.32-6,5.16,6,10.32,6,5.16-6,10.32-6,5.16,6,10.32,6,5.16-6,10.32-6,5.16,6,10.32,6,5.16-6,10.32-6,5.16,6,10.32,6,5.17-6,10.33-6,5.16,6,10.32,6,5.17-6,10.33-6,5.17,6,10.33,6" transform="translate(-120.5 -46.5)"/></svg>