<svg id="Layer_1" data-name="Layer 1" xmlns="http://www.w3.org/2000/svg" viewBox="0 0 660 6"><defs><style>.cls-1{fill:none;stroke:#f90;stroke-miterlimit:10;stroke-width:3px;}</style></defs><title>zigzag</title><path class="cls-1" d="M19.5,23c3.27,0,3.27,3,6.53,3s3.27-3,6.54-3,3.26,3,6.53,3,3.26-3,6.53-3,3.26,3,6.53,3,3.26-3,6.53-3,3.26,3,6.53,3,3.26-3,6.52-3,3.27,3,6.53,3,3.27-3,6.53-3,3.27,3,6.54,3,3.26-3,6.53-3,3.27,3,6.53,3,3.27-3,6.54-3,3.26,3,6.53,3,3.26-3,6.53-3,3.26,3,6.53,3,3.26-3,6.53-3,3.26,3,6.53,3,3.27-3,6.53-3,3.27,3,6.53,3,3.27-3,6.54-3,3.26,3,6.53,3,3.27-3,6.54-3,3.26,3,6.53,3,3.26-3,6.53-3,3.26,3,6.53,3,3.27-3,6.53-3,3.27,3,6.53,3,3.27-3,6.54-3,3.26,3,6.53,3,3.27-3,6.54-3,3.26,3,6.53,3,3.26-3,6.53-3,3.27,3,6.53,3,3.27-3,6.54-3,3.26,3,6.53,3,3.27-3,6.53-3,3.27,3,6.54,3,3.27-3,6.53-3,3.27,3,6.53,3,3.27-3,6.54-3,3.26,3,6.53,3,3.27-3,6.54-3,3.26,3,6.53,3,3.27-3,6.54-3,3.26,3,6.53,3,3.27-3,6.53-3,3.27,3,6.54,3,3.27-3,6.53-3,3.27,3,6.54,3,3.26-3,6.53-3,3.27,3,6.54,3,3.26-3,6.53-3,3.27,3,6.54,3,3.26-3,6.53-3,3.27,3,6.54,3,3.27-3,6.53-3,3.27,3,6.54,3,3.27-3,6.53-3,3.27,3,6.54,3,3.27-3,6.54-3,3.26,3,6.53,3,3.27-3,6.54-3,3.26,3,6.53,3,3.27-3,6.54-3,3.27,3,6.53,3,3.27-3,6.54-3,3.27,3,6.54,3,3.26-3,6.53-3,3.27,3,6.54,3,3.26-3,6.53-3,3.27,3,6.54,3,3.26-3,6.53-3,3.26,3,6.53,3,3.27-3,6.54-3,3.26,3,6.53,3,3.27-3,6.54-3,3.26,3,6.53,3,3.27-3,6.54-3,3.27,3,6.53,3,3.27-3,6.54-3,3.27,3,6.54,3,3.26-3,6.53-3,3.27,3,6.54,3,3.27-3,6.54-3,3.27,3,6.54,3,3.27-3,6.54-3,3.26,3,6.53,3,3.27-3,6.54-3,3.27,3,6.54,3,3.27-3,6.54-3,3.26,3,6.53,3,3.27-3,6.54-3,3.27,3,6.54,3,3.27-3,6.54-3,3.27,3,6.54,3,3.27-3,6.54-3,3.27,3,6.54,3,3.28-3,6.55-3,3.28,3,6.55,3" transform="translate(-19.5 -21.5)"/></svg>